<?xml version="1.0" encoding="utf-8"?>
<!-- Generator: Adobe Illustrator 24.2.0, SVG Export Plug-In . SVG Version: 6.00 Build 0)  -->
<svg version="1.1"
	 id="svg2" xmlns:cc="http://creativecommons.org/ns#" xmlns:dc="http://purl.org/dc/elements/1.1/" xmlns:rdf="http://www.w3.org/1999/02/22-rdf-syntax-ns#" xmlns:svg="http://www.w3.org/2000/svg"
	 xmlns="http://www.w3.org/2000/svg" xmlns:xlink="http://www.w3.org/1999/xlink" x="0px" y="0px" viewBox="0 0 3362 2882"
	 style="enable-background:new 0 0 3362 2882;" xml:space="preserve">
<style type="text/css">
	.st0{fill-rule:evenodd;clip-rule:evenodd;fill:#FFFFFF;stroke:#000000;stroke-width:2;stroke-miterlimit:16;}
	.st1{fill-rule:evenodd;clip-rule:evenodd;fill:#0025FF;}
	.st2{fill-rule:evenodd;clip-rule:evenodd;fill:#5555FF;}
	.st3{fill-rule:evenodd;clip-rule:evenodd;fill:#5555FD;}
	.st4{fill-rule:evenodd;clip-rule:evenodd;fill:#FFFFFF;}
	.st5{fill:#FFFFFF;}
	.st6{fill:#5555FD;}
	.st7{fill-rule:evenodd;clip-rule:evenodd;fill:#FFFFFF;stroke:#000000;stroke-width:0.5099;}
	.st8{fill:#0025FF;}
	.st9{fill:#5555FF;}
	.st10{fill-rule:evenodd;clip-rule:evenodd;fill:#FFFFFF;stroke:#000000;stroke-width:2;}
	.st11{fill-rule:evenodd;clip-rule:evenodd;}
	.st12{fill-rule:evenodd;clip-rule:evenodd;fill:#ED1C24;}
	.st13{fill-rule:evenodd;clip-rule:evenodd;fill:#F8DA27;}
	.st14{fill-rule:evenodd;clip-rule:evenodd;fill:#58585A;}
	.st15{fill-rule:evenodd;clip-rule:evenodd;fill:#FF0000;}
	.st16{fill-rule:evenodd;clip-rule:evenodd;fill:#001EFF;}
	.st17{fill-rule:evenodd;clip-rule:evenodd;fill:#FFE600;}
	.st18{fill-rule:evenodd;clip-rule:evenodd;fill:#0BAF0B;}
	.st19{fill:none;stroke:#FFFFFF;stroke-width:2;}
	.st20{fill:none;stroke:#FFFFFF;stroke-width:4;}
</style>
<g>
	<path id="rect2987-41" class="st0" d="M281,1081h160c22.1,0,40,17.9,40,40v280c0,22.1-17.9,40-40,40H281c-22.1,0-40-17.9-40-40
		v-280C241,1098.9,258.9,1081,281,1081z"/>
	<path id="rect2987-1-8" class="st0" d="M41,1081h160c22.1,0,40,17.9,40,40v280c0,22.1-17.9,40-40,40H41c-22.1,0-40-17.9-40-40v-280
		C1,1098.9,18.9,1081,41,1081z"/>
	<path id="rect2987-4-30" class="st0" d="M1721,1081h160c22.1,0,40,17.9,40,40v280c0,22.1-17.9,40-40,40h-160c-22.1,0-40-17.9-40-40
		v-280C1681,1098.9,1698.9,1081,1721,1081z"/>
	<path id="rect2987-8-8" class="st0" d="M521,1081h160c22.1,0,40,17.9,40,40v280c0,22.1-17.9,40-40,40H521c-22.1,0-40-17.9-40-40
		v-280C481,1098.9,498.9,1081,521,1081z"/>
	<path id="rect2987-8-5-2" class="st0" d="M761,1081h160c22.1,0,40,17.9,40,40v280c0,22.1-17.9,40-40,40H761c-22.1,0-40-17.9-40-40
		v-280C721,1098.9,738.9,1081,761,1081z"/>
	<path id="rect2987-8-5-0-2" class="st0" d="M1001,1081h160c22.1,0,40,17.9,40,40v280c0,22.1-17.9,40-40,40h-160
		c-22.1,0-40-17.9-40-40v-280C961,1098.9,978.9,1081,1001,1081z"/>
	<path id="rect2987-8-5-6-50" class="st0" d="M1241,1081h160c22.1,0,40,17.9,40,40v280c0,22.1-17.9,40-40,40h-160
		c-22.1,0-40-17.9-40-40v-280C1201,1098.9,1218.9,1081,1241,1081z"/>
	<path id="rect2987-8-5-7-2" class="st0" d="M1481,1081h160c22.1,0,40,17.9,40,40v280c0,22.1-17.9,40-40,40h-160
		c-22.1,0-40-17.9-40-40v-280C1441,1098.9,1458.9,1081,1481,1081z"/>
	<path id="rect2987-8-5-8-37" class="st0" d="M1961,1081h160c22.1,0,40,17.9,40,40v280c0,22.1-17.9,40-40,40h-160
		c-22.1,0-40-17.9-40-40v-280C1921,1098.9,1938.9,1081,1961,1081z"/>
	<path id="rect2987-8-5-81-79" class="st0" d="M2201,1081h160c22.1,0,40,17.9,40,40v280c0,22.1-17.9,40-40,40h-160
		c-22.1,0-40-17.9-40-40v-280C2161,1098.9,2178.9,1081,2201,1081z"/>
	<path id="rect2987-8-5-81-5-4" class="st0" d="M2441,1081h160c22.1,0,40,17.9,40,40v280c0,22.1-17.9,40-40,40h-160
		c-22.1,0-40-17.9-40-40v-280C2401,1098.9,2418.9,1081,2441,1081z"/>
	<path id="rect2987-8-5-81-25-86" class="st0" d="M2681,1081h160c22.1,0,40,17.9,40,40v280c0,22.1-17.9,40-40,40h-160
		c-22.1,0-40-17.9-40-40v-280C2641,1098.9,2658.9,1081,2681,1081z"/>
	<path id="rect2987-8-5-81-7-3-7-1" class="st0" d="M2921,1081h160c22.1,0,40,17.9,40,40v280c0,22.1-17.9,40-40,40h-160
		c-22.1,0-40-17.9-40-40v-280C2881,1098.9,2898.9,1081,2921,1081z"/>
</g>
<g>
	<path id="rect3757-29" class="st1" d="M281,1101h160c11,0,20,9,20,20v280c0,11-9,20-20,20H281c-11,0-20-9-20-20v-280
		C261,1110,270,1101,281,1101z"/>
	<path id="rect3757-5-07" class="st1" d="M41,1101h160c11,0,20,9,20,20v280c0,11-9,20-20,20H41c-11,0-20-9-20-20v-280
		C21,1110,30,1101,41,1101z"/>
	<path id="rect3757-2-19" class="st2" d="M1721,1101h160c11,0,20,9,20,20v280c0,11-9,20-20,20h-160c-11,0-20-9-20-20v-280
		C1701,1110,1710,1101,1721,1101z"/>
	<path id="rect3757-26-2" class="st1" d="M521,1101h160c11,0,20,9,20,20v280c0,11-9,20-20,20H521c-11,0-20-9-20-20v-280
		C501,1110,510,1101,521,1101z"/>
	<path id="rect3757-26-33-87" class="st1" d="M761,1101h160c11,0,20,9,20,20v280c0,11-9,20-20,20H761c-11,0-20-9-20-20v-280
		C741,1110,750,1101,761,1101z"/>
	<path id="rect3757-26-33-8-6" class="st1" d="M1001,1101h160c11,0,20,9,20,20v280c0,11-9,20-20,20h-160c-11,0-20-9-20-20v-280
		C981,1110,990,1101,1001,1101z"/>
	<path id="rect3757-26-33-81-5" class="st1" d="M1241,1101h160c11,0,20,9,20,20v280c0,11-9,20-20,20h-160c-11,0-20-9-20-20v-280
		C1221,1110,1230,1101,1241,1101z"/>
	<path id="rect3757-26-33-2-2" class="st2" d="M1481,1101h160c11,0,20,9,20,20v280c0,11-9,20-20,20h-160c-11,0-20-9-20-20v-280
		C1461,1110,1470,1101,1481,1101z"/>
	<path id="rect3757-26-33-9-0" class="st2" d="M1961,1101h160c11,0,20,9,20,20v280c0,11-9,20-20,20h-160c-11,0-20-9-20-20v-280
		C1941,1110,1950,1101,1961,1101z"/>
	<path id="rect3757-26-33-5-39" class="st2" d="M2201,1101h160c11,0,20,9,20,20v280c0,11-9,20-20,20h-160c-11,0-20-9-20-20v-280
		C2181,1110,2190,1101,2201,1101z"/>
	<path id="rect3757-26-33-5-3-8" class="st3" d="M2441,1101h160c11,0,20,9,20,20v280c0,11-9,20-20,20h-160c-11,0-20-9-20-20v-280
		C2421,1110,2430,1101,2441,1101z"/>
	<path id="rect3757-26-33-5-8-1" class="st3" d="M2681,1101h160c11,0,20,9,20,20v280c0,11-9,20-20,20h-160c-11,0-20-9-20-20v-280
		C2661,1110,2670,1101,2681,1101z"/>
	<path id="rect3757-26-33-5-2-2-2-8" class="st3" d="M2921,1101h160c11,0,20,9,20,20v280c0,11-9,20-20,20h-160c-11,0-20-9-20-20
		v-280C2901,1110,2910,1101,2921,1101z"/>
</g>
<path id="path3773-0-4-8-4-0" class="st4" d="M421,1161c-88.4,0-160,71.6-160,160c0,22.1,17.9,40,40,40c88.4,0,160-71.6,160-160
	C461,1178.9,443.1,1161,421,1161z"/>
<path id="rect3921-5-74" class="st4" d="M281,1111l-10,10v12l10-10v48h10v-60H281z"/>
<path id="rect3921-5-5-5" class="st4" d="M441,1411l10-10v-12l-10,10v-48h-10v60H441z"/>
<path id="path3773-0-4-8-4-2-7" class="st4" d="M181,1161c-88.4,0-160,71.6-160,160c0,22.1,17.9,40,40,40c88.4,0,160-71.6,160-160
	C221,1178.9,203.1,1161,181,1161z"/>
<path id="path3962-7-1-1" class="st4" d="M51,1111c-11,0-20,9-20,20v20c0,11,9,20,20,20s20-9,20-20v-20C71,1120,62,1111,51,1111z
	 M51,1121c5.5,0,10,4.5,10,10v20c0,5.5-4.5,10-10,10s-10-4.5-10-10v-20C41,1125.5,45.5,1121,51,1121z"/>
<path id="path3962-7-1-2-3" class="st4" d="M191,1351c-11,0-20,9-20,20v20c0,11,9,20,20,20s20-9,20-20v-20
	C211,1360,202,1351,191,1351z M191,1361c5.5,0,10,4.5,10,10v20c0,5.5-4.5,10-10,10s-10-4.5-10-10v-20
	C181,1365.5,185.5,1361,191,1361z"/>
<path id="path3773-0-4-8-4-3-04" class="st4" d="M1861,1161c-88.4,0-160,71.6-160,160c0,22.1,17.9,40,40,40c88.4,0,160-71.6,160-160
	C1901,1178.9,1883.1,1161,1861,1161z"/>
<path id="rect4014-3-93" class="st4" d="M1711,1111v20h10v-10h20l-20,50h10l20-50v-10h-30H1711z"/>
<path id="rect4014-3-3-1" class="st4" d="M1891,1411v-20h-10v10h-20l20-50h-10l-20,50v10h30H1891z"/>
<path id="path3773-0-4-8-4-60-0" class="st4" d="M661,1161c-88.4,0-160,71.6-160,160c0,22.1,17.9,40,40,40c88.4,0,160-71.6,160-160
	C701,1178.9,683.1,1161,661,1161z"/>
<path id="rect3163-52-9-8-1-1-2-7-3-6-0-9-5" class="st5" d="M531,1111c-11.1,0-20,8.9-20,20v2h10v-2c0-5.5,4.5-10,10-10
	s10,4.5,10,10c0,2.3-1.9,6.7-3.8,8.2c-10.6,8.3-10.5,7-26.2,17.8v14h20h20v-10v-4h-10v4h-10h-8c12.4-8.7,13.3-8.5,23-17.2
	c3.1-2.8,5-8.3,5-12.8C551,1119.9,542.1,1111,531,1111z"/>
<path id="rect3163-52-9-8-1-1-2-7-3-6-0-4-9" class="st5" d="M671,1411c11.1,0,20-8.9,20-20v-2h-10v2c0,5.5-4.5,10-10,10
	s-10-4.5-10-10c0-2.3,1.9-6.7,3.8-8.2c10.6-8.3,10.5-7,26.2-17.8v-14h-20h-20v10v4h10v-4h10h8c-12.4,8.7-13.3,8.5-23,17.2
	c-3.1,2.8-5,8.3-5,12.8C651,1402.1,659.9,1411,671,1411z"/>
<path id="path3773-0-4-8-4-60-3-4" class="st4" d="M901,1161c-88.4,0-160,71.6-160,160c0,22.1,17.9,40,40,40
	c88.4,0,160-71.6,160-160C941,1178.9,923.1,1161,901,1161z"/>
<path id="rect3163-52-9-8-1-1-2-7-3-6-4-6-1-8-7-0-6-2-14" class="st5" d="M771,1111c-8.3,0-15,6.7-15,15h10c0-2.8,2.2-5,5-5
	s5,2.2,5,5s-2.2,5-5,5h-6v10h6c5.5,0,10,4.5,10,10s-4.5,10-10,10s-10-4.5-10-10h-10c0,11.1,8.9,20,20,20s20-8.9,20-20
	c0-6.6-3.2-12.4-8.1-16c1.9-2.5,3.1-5.6,3.1-9C786,1117.7,779.3,1111,771,1111z"/>
<path id="rect3163-52-9-8-1-1-2-7-3-6-4-6-1-8-7-0-6-2-6-35" class="st5" d="M911,1411c8.3,0,15-6.7,15-15h-10c0,2.8-2.2,5-5,5
	s-5-2.2-5-5s2.2-5,5-5h6v-10h-6c-5.5,0-10-4.5-10-10s4.5-10,10-10s10,4.5,10,10h10c0-11.1-8.9-20-20-20s-20,8.9-20,20
	c0,6.6,3.2,12.4,8.1,16c-1.9,2.5-3.1,5.6-3.1,9C896,1404.3,902.7,1411,911,1411z"/>
<path id="path3773-0-4-8-4-60-3-8-89" class="st4" d="M1141,1161c-88.4,0-160,71.6-160,160c0,22.1,17.9,40,40,40
	c88.4,0,160-71.6,160-160C1181,1178.9,1163.1,1161,1141,1161z"/>
<path id="rect3980-7-6-2-9-5-60-5-3-95" class="st5" d="M1010.2,1111l-19.6,40v10h24v10h10v-10h6v-10h-6v-20h-10v20H1001l19.6-40
	H1010.2z"/>
<path id="rect3980-7-6-2-9-5-60-5-3-9-9" class="st5" d="M1151,1411l19.6-40v-10h-24v-10h-10v10h-6v10h6v20h10v-20h13.6l-19.6,40
	H1151z"/>
<path id="path3773-0-4-8-4-60-3-9-8" class="st4" d="M1381,1161c-88.4,0-160,71.6-160,160c0,22.1,17.9,40,40,40
	c88.4,0,160-71.6,160-160C1421,1178.9,1403.1,1161,1381,1161z"/>
<path id="rect3163-6-0-0-2-7-1-2-19-2-4-01" class="st5" d="M1231,1111v20v10h20c5.5,0,10,4.5,10,10s-4.5,10-10,10s-10-4.5-10-10
	h-10c0,11.1,8.9,20,20,20s20-8.9,20-20s-8.9-20-20-20h-10v-10h10h18v-10h-18h-10H1231z"/>
<path id="rect3163-6-0-0-2-7-1-2-19-2-4-6-3" class="st5" d="M1411,1411v-20v-10h-20c-5.5,0-10-4.5-10-10s4.5-10,10-10s10,4.5,10,10
	h10c0-11.1-8.9-20-20-20s-20,8.9-20,20s8.9,20,20,20h10v10h-10h-18v10h18h10H1411z"/>
<path id="path3773-0-4-8-4-60-3-2-7" class="st4" d="M1621,1161c-88.4,0-160,71.6-160,160c0,22.1,17.9,40,40,40
	c88.4,0,160-71.6,160-160C1661,1178.9,1643.1,1161,1621,1161z"/>
<path id="path3962-5-6-2-1-3" class="st4" d="M1491,1111c-11,0-20,9-20,20v20c0,11,9,20,20,20s20-9,20-20s-9-20-20-20
	c-3.6,0-7.1,1-10,2.7v-2.7c0-5.5,4.5-10,10-10c3.9,0,7.2,2.3,8.9,5.6l9-4.5C1505.6,1115.5,1498.8,1111,1491,1111z M1491,1141
	c5.5,0,10,4.5,10,10s-4.5,10-10,10s-10-4.5-10-10S1485.5,1141,1491,1141z"/>
<path id="path3962-5-6-2-1-8-1" class="st4" d="M1631,1411c11,0,20-9,20-20v-20c0-11-9-20-20-20s-20,9-20,20s9,20,20,20
	c3.6,0,7.1-1,10-2.7v2.7c0,5.5-4.5,10-10,10c-3.9,0-7.2-2.3-8.9-5.6l-9,4.5C1616.4,1406.5,1623.2,1411,1631,1411z M1631,1381
	c-5.5,0-10-4.5-10-10s4.5-10,10-10s10,4.5,10,10S1636.5,1381,1631,1381z"/>
<path id="path3773-0-4-8-4-60-3-0-9" class="st4" d="M2101,1161c-88.4,0-160,71.6-160,160c0,22.1,17.9,40,40,40
	c88.4,0,160-71.6,160-160C2141,1178.9,2123.1,1161,2101,1161z"/>
<path id="rect3163-52-9-8-1-1-2-7-3-6-4-6-1-8-8-2-1-83" class="st5" d="M1971,1111c-8.3,0-15,6.7-15,15c0,3.4,1.2,6.5,3.1,9
	c-4.9,3.6-8.1,9.4-8.1,16c0,11.1,8.9,20,20,20s20-8.9,20-20c0-6.6-3.2-12.4-8.1-16c1.9-2.5,3.1-5.6,3.1-9
	C1986,1117.7,1979.3,1111,1971,1111z M1971,1121c2.8,0,5,2.2,5,5s-2.2,5-5,5s-5-2.2-5-5S1968.2,1121,1971,1121z M1970,1141
	c0.3,0,0.7,0,1,0c5.5,0,10,4.5,10,10s-4.5,10-10,10s-10-4.5-10-10C1961,1145.8,1964.9,1141.5,1970,1141z"/>
<path id="rect3163-52-9-8-1-1-2-7-3-6-4-6-1-8-8-2-1-1-7" class="st5" d="M2111,1411c-8.3,0-15-6.7-15-15c0-3.4,1.2-6.5,3.1-9
	c-4.9-3.6-8.1-9.4-8.1-16c0-11.1,8.9-20,20-20s20,8.9,20,20c0,6.6-3.2,12.4-8.1,16c1.9,2.5,3.1,5.6,3.1,9
	C2126,1404.3,2119.3,1411,2111,1411z M2111,1401c2.8,0,5-2.2,5-5s-2.2-5-5-5s-5,2.2-5,5S2108.2,1401,2111,1401z M2110,1381
	c0.3,0,0.7,0,1,0c5.5,0,10-4.5,10-10s-4.5-10-10-10s-10,4.5-10,10C2101,1376.2,2104.9,1380.5,2110,1381z"/>
<path id="path3773-0-4-8-4-60-3-86-1" class="st4" d="M2341,1161c-88.4,0-160,71.6-160,160c0,22.1,17.9,40,40,40
	c88.4,0,160-71.6,160-160C2381,1178.9,2363.1,1161,2341,1161z"/>
<path id="path3962-5-6-2-1-9-2" class="st4" d="M2211,1171c11,0,20-9,20-20v-20c0-11-9-20-20-20s-20,9-20,20s9,20,20,20
	c3.6,0,7.1-1,10-2.7v2.7c0,5.5-4.5,10-10,10c-3.9,0-7.2-2.3-8.9-5.6l-9,4.5C2196.4,1166.5,2203.2,1171,2211,1171z M2211,1141
	c-5.5,0-10-4.5-10-10s4.5-10,10-10s10,4.5,10,10S2216.5,1141,2211,1141z"/>
<path id="path3962-5-6-2-1-8-7-8" class="st4" d="M2351,1351c-11,0-20,9-20,20v20c0,11,9,20,20,20s20-9,20-20s-9-20-20-20
	c-3.6,0-7.1,1-10,2.7v-2.7c0-5.5,4.5-10,10-10c3.9,0,7.2,2.3,8.9,5.6l9-4.5C2365.6,1355.5,2358.8,1351,2351,1351z M2351,1381
	c5.5,0,10,4.5,10,10s-4.5,10-10,10s-10-4.5-10-10S2345.5,1381,2351,1381z"/>
<path id="path3773-0-4-8-4-60-3-86-2-3" class="st4" d="M2581,1161c-88.4,0-160,71.6-160,160c0,22.1,17.9,40,40,40
	c88.4,0,160-71.6,160-160C2621,1178.9,2603.1,1161,2581,1161z"/>
<path id="path5897-6-8-2-6" class="st4" d="M2461.1,1111c-7.7,0-15.4,2.9-21.2,8.7c-11.7,11.7-11.8,30.7-0.1,42.4
	c11.7,11.7,30.7,11.8,42.4,0.1c11.7-11.7,11.8-30.7,0.1-42.4C2476.4,1113.9,2468.7,1111,2461.1,1111L2461.1,1111z M2461,1121
	c3.5,0,7,0.9,10.1,2.7l-27.4,27.4c-4.5-7.7-3.5-17.7,3.1-24.3C2450.8,1122.9,2455.9,1121,2461,1121z M2478.2,1130.8
	c4.6,7.7,3.5,17.8-3.1,24.4s-16.6,7.6-24.3,3L2478.2,1130.8L2478.2,1130.8z"/>
<path id="path5897-6-8-5-4" class="st4" d="M2581.1,1351c-7.7,0-15.4,2.9-21.2,8.7c-11.7,11.7-11.8,30.7-0.1,42.4
	c11.7,11.7,30.7,11.8,42.4,0.1c11.7-11.7,11.8-30.7,0.1-42.4C2596.4,1353.9,2588.7,1351,2581.1,1351L2581.1,1351z M2581,1361
	c3.5,0,7,0.9,10.1,2.7l-27.4,27.4c-4.5-7.7-3.5-17.7,3.1-24.3C2570.8,1362.9,2575.9,1361,2581,1361z M2598.2,1370.8
	c4.6,7.7,3.5,17.8-3.1,24.4s-16.6,7.6-24.3,3L2598.2,1370.8L2598.2,1370.8z"/>
<path id="path3773-0-4-8-4-60-3-86-6-55" class="st4" d="M2821,1161c-88.4,0-160,71.6-160,160c0,22.1,17.9,40,40,40
	c88.4,0,160-71.6,160-160C2861,1178.9,2843.1,1161,2821,1161z"/>
<path id="path5973-4-6-9" class="st6" d="M2761,1326l-10-10l40-40c10-10,10-30,0-40l-20,20l-40,40l-10-10v40H2761z"/>
<path id="path5973-6-5-6" class="st5" d="M2691,1111l5,5l-20,20c-5,5-5,15,0,20l10-10l20-20l5,5v-20H2691z"/>
<path id="path5973-4-3-5-45" class="st5" d="M2691,1176l-5-5l20-20c5-5,5-15,0-20l-10,10l-20,20l-5-5v20H2691z"/>
<path id="path5973-6-5-2-4" class="st5" d="M2831,1346l5,5l-20,20c-5,5-5,15,0,20l10-10l20-20l5,5v-20H2831z"/>
<path id="path5973-4-3-5-8-2" class="st5" d="M2831,1411l-5-5l20-20c5-5,5-15,0-20l-10,10l-20,20l-5-5v20H2831z"/>
<g id="g6111-64-0-9-1" transform="matrix(1.909091,0,0,1.9999989,1147.4999,1227.6381)">
</g>
<g id="g6111-62-9-6-6-1" transform="matrix(1.909091,0,0,1.9999989,1166.5908,1212.6381)">
</g>
<g id="g6111-64-8-3-8" transform="matrix(1.909091,0,0,1.9999989,1267.4999,1467.6381)">
</g>
<g id="g6111-62-9-5-61-8" transform="matrix(1.909091,0,0,1.9999989,1286.5908,1452.6381)">
</g>
<path id="path3773-0-4-8-4-60-3-86-29-6-7-3" class="st4" d="M3061,1161c-88.4,0-160,71.6-160,160c0,22.1,17.9,40,40,40
	c88.4,0,160-71.6,160-160C3101,1178.9,3083.1,1161,3061,1161L3061,1161z"/>
<path id="rect6095-5-8-2-7" class="st7" d="M2973.9,1231h40c5.5,0,8.8,4,7.4,9l-20.6,71.9c-1.4,5-7.1,9-12.6,9h-40
	c-5.5,0-8.8-4-7.4-9l20.6-71.9C2962.7,1235,2968.3,1231,2973.9,1231z"/>
<path id="rect6095-1-66-4-8" class="st7" d="M3013.9,1201h40c5.5,0,8.8,4,7.4,9l-20.6,71.9c-1.4,5-7.1,9-12.6,9h-40
	c-5.5,0-8.8-4-7.4-9l20.6-71.9C3002.7,1205,3008.3,1201,3013.9,1201z"/>
<path id="rect3921-8" class="st1" d="M353,1201l-20,20v24l20-20v96h20v-120H353z"/>
<path id="path3962-7-43" class="st1" d="M121,1201c-22.1,0-40,17.9-40,40v40c0,22.1,17.9,40,40,40s40-17.9,40-40v-40
	C161,1218.9,143.1,1201,121,1201z M121,1221c11,0,20,9,20,20v40c0,11-9,20-20,20s-20-9-20-20v-40C101,1230,110,1221,121,1221z"/>
<path id="rect4014-2" class="st2" d="M1767,1201v40h20v-20h40l-40,100h20l40-100v-20h-60H1767z"/>
<path id="rect3163-52-9-8-1-1-2-7-3-6-5-5" class="st8" d="M597,1201c-22.2,0-40,17.8-40,40v4h20v-4c0-11.1,8.9-20,20-20
	s20,8.9,20,20c0,4.5-3.7,13.4-7.6,16.4c-21.2,16.7-21,13.9-52.4,35.6v28h40h40v-20v-8h-20v8h-20h-16c24.8-17.4,26.6-17,46-34.4
	c6.2-5.6,10-16.6,10-25.6C637,1218.8,619.2,1201,597,1201z"/>
<path id="rect3163-52-9-8-1-1-2-7-3-6-4-6-1-8-7-0-1-8" class="st8" d="M841,1201c-16.6,0-30,13.4-30,30h20c0-5.5,4.5-10,10-10
	s10,4.5,10,10s-4.5,10-10,10h-12v20h12c11.1,0,20,8.9,20,20s-8.9,20-20,20s-20-8.9-20-20h-20c0,22.2,17.8,40,40,40s40-17.8,40-40
	c0-13.2-6.4-24.7-16.1-32c3.8-5,6.1-11.2,6.1-18C871,1214.4,857.6,1201,841,1201z"/>
<path id="rect3980-7-6-2-9-5-60-2-2" class="st8" d="M1076.2,1201l-39.2,80v20h48v20h20v-20h12v-20h-12v-40h-20v40h-27.2l39.2-80
	H1076.2z"/>
<path id="rect3163-6-0-0-2-7-1-2-19-4-8" class="st8" d="M1285,1201v40v20h40c11.1,0,20,8.9,20,20s-8.9,20-20,20s-20-8.9-20-20h-20
	c0,22.2,17.8,40,40,40s40-17.8,40-40s-17.8-40-40-40h-20v-20h20h36v-20h-36h-20H1285z"/>
<path id="path3962-5-6-2-0" class="st2" d="M1561,1201c-22.1,0-40,17.9-40,40v40c0,22.1,17.9,40,40,40s40-17.9,40-40s-17.9-40-40-40
	c-7.3,0-14.1,2-20,5.4v-5.4c0-11,9-20,20-20c7.8,0,14.5,4.6,17.8,11.1l18-9C1590.2,1210,1576.7,1201,1561,1201z M1561,1261
	c11,0,20,9,20,20s-9,20-20,20s-20-9-20-20S1550,1261,1561,1261z M1541,1325v8h40v-8H1541z"/>
<path id="rect3163-52-9-8-1-1-2-7-3-6-4-6-1-8-8-5-55" class="st9" d="M2041,1201c-16.6,0-30,13.4-30,30c0,6.8,2.3,13,6.1,18
	c-9.8,7.3-16.1,18.8-16.1,32c0,22.2,17.8,40,40,40s40-17.8,40-40c0-13.2-6.4-24.7-16.1-32c3.8-5,6.1-11.2,6.1-18
	C2071,1214.4,2057.6,1201,2041,1201z M2041,1221c5.5,0,10,4.5,10,10s-4.5,10-10,10s-10-4.5-10-10S2035.5,1221,2041,1221z M2039,1261
	c0.7-0.1,1.3,0,2,0c11.1,0,20,8.9,20,20s-8.9,20-20,20c-11.1,0-20-8.9-20-20C2021,1270.6,2028.9,1262,2039,1261z"/>
<path id="path3962-5-8-8" class="st2" d="M2281,1201c-22.1,0-40,17.9-40,40s17.9,40,40,40c7.3,0,14.1-2,20-5.4v5.4c0,11-9,20-20,20
	c-7.8,0-14.5-4.6-17.8-11.1l-18,9c6.6,13.1,20.1,22.1,35.8,22.1c22.1,0,40-17.9,40-40v-40C2321,1218.9,2303.1,1201,2281,1201z
	 M2281,1221c11,0,20,9,20,20s-9,20-20,20s-20-9-20-20S2270,1221,2281,1221z M2261,1325v8h40v-8H2261z"/>
<path id="path5897-6-5-97" class="st3" d="M2521.1,1201c-15.4,0-30.8,5.8-42.5,17.5c-23.5,23.4-23.5,61.4-0.1,84.9
	s61.4,23.5,84.9,0.1s23.5-61.4,0.1-84.9C2551.8,1206.9,2536.5,1201,2521.1,1201L2521.1,1201z M2521,1221c7,0,14,1.8,20.3,5.5
	l-54.8,54.8c-9-15.4-6.9-35.5,6.3-48.6C2500.6,1224.8,2510.8,1221,2521,1221z M2555.5,1240.6c9.1,15.4,7,35.6-6.3,48.8
	c-13.2,13.2-33.3,15.1-48.6,6L2555.5,1240.6z"/>
<path id="path5973-41-1" class="st6" d="M2761,1196l10,10l-40,40c-10,10-10,30,0,40l20-20l40-40l10,10v-40H2761z"/>
<path id="rect6097-3-2-6-5" class="st3" d="M2981,1241h20c5.5,0,8.8,4,7.4,9l-14.8,51.9c-1.4,5-7.1,9-12.6,9h-20c-5.5,0-8.8-4-7.4-9
	l14.8-51.9C2969.8,1245,2975.5,1241,2981,1241z"/>
<path id="rect6097-8-3-7-1" class="st3" d="M3021,1211h20c5.5,0,8.8,4,7.4,9l-14.8,51.9c-1.4,5-7.1,9-12.6,9h-20c-5.5,0-8.8-4-7.4-9
	l14.8-51.9C3009.8,1215,3015.5,1211,3021,1211z"/>
<path id="rect5649-4-2-7-7" class="st4" d="M2915,1131v10h-10v10h10v10h10v-10h10v-10h-10v-10H2915z"/>
<path id="rect3163-52-9-8-1-1-2-7-3-6-0-9-5-9-2-0" class="st5" d="M2961,1111c-11.1,0-20,8.9-20,20v2h10v-2c0-5.5,4.5-10,10-10
	s10,4.5,10,10c0,2.3-1.9,6.7-3.8,8.2c-10.6,8.3-10.5,7-26.2,17.8v14h20h20v-10v-4h-10v4h-10h-8c12.4-8.7,13.3-8.5,23-17.2
	c3.1-2.8,5-8.3,5-12.8C2981,1119.9,2972.1,1111,2961,1111z"/>
<path id="rect5649-4-2-7-0-4" class="st4" d="M3087,1391v-10h10v-10h-10v-10h-10v10h-10v10h10v10H3087z"/>
<path id="rect3163-52-9-8-1-1-2-7-3-6-0-9-5-9-2-2-88" class="st5" d="M3041,1411c11.1,0,20-8.9,20-20v-2h-10v2c0,5.5-4.5,10-10,10
	s-10-4.5-10-10c0-2.3,1.9-6.7,3.8-8.2c10.6-8.3,10.5-7,26.2-17.8v-14h-20h-20v10v4h10v-4h10h8c-12.4,8.7-13.3,8.5-23,17.2
	c-3.1,2.8-5,8.3-5,12.8C3021,1402.1,3029.9,1411,3041,1411z"/>
<path id="cornice" class="st10" d="M1096.5,1592.1h266.3c36.8,0,66.6,29.8,66.6,66.6v465.9c0,36.8-29.8,66.6-66.6,66.6h-266.3
	c-36.8,0-66.6-29.8-66.6-66.6v-465.9C1030,1621.9,1059.8,1592.1,1096.5,1592.1z"/>
<path id="colore_1_" class="st11" d="M1096.5,1625.4h266.3c18.4,0,33.3,14.9,33.3,33.3v465.9c0,18.4-14.9,33.3-33.3,33.3h-266.3
	c-18.4,0-33.3-14.9-33.3-33.3v-465.9C1063.3,1640.3,1078.2,1625.4,1096.5,1625.4z"/>
<path id="path4_1_" class="st12" d="M1190.1,1788.7c41.4-22,85.9-26.5,122.4-18c83,19.6,89.5,82,45.3,146.3
	c-20.2,29.5-50.1,57.8-86.1,75.6c-59.2,29.3-115.8,30.9-153,8.3c-37.4-22.6-46.3-60.6-33.1-101
	C1099.2,1858,1137.4,1814.8,1190.1,1788.7L1190.1,1788.7z"/>
<g id="Logo_UNO">
	<path id="path6_1_" class="st5" d="M1320.4,1836.4L1320.4,1836.4c-0.2,2.4-0.2,4.8,0.2,7.1c0.4,2.6,1,5.3,2,7.9
		c1.4,3.8,3.4,7.1,5.5,9.9c2,2.6,4.4,4.6,7.1,6.1c3.4,1.4,6.5,2.2,9.1,2c2.2,0,3.8-0.6,4.9-1.6c0.8-0.8,1.4-2,1.6-3.6
		c0.4-2.2,0-4.9-0.6-8.5c-0.2-1-0.4-1.8-0.6-2.8c-0.2-0.8-0.6-1.8-0.8-2.6c-1.8-4.6-4.2-8.7-7.1-11.9c-2.6-2.8-5.7-4.8-9.1-5.7
		c-3.6-1-6.5-1-8.7-0.2c-1.4,0.6-2.6,1.6-3.2,3.2L1320.4,1836.4z M1318.8,1780.6c17.6-6.5,35-5.1,49.9,2.2
		c15.4,7.5,27.9,21.6,34.4,39.2c3.8,9.9,5.1,20.2,4.6,29.9c-0.6,9.9-3.2,19.4-7.9,27.9c-0.2,0.4-0.4,1-1,1.8c-0.4,0.8-0.8,1.4-1,1.8
		c-7.1,11.7-14.5,20.2-21.8,26.3c-7.5,6.1-14.8,10.1-22.2,12.9c-18,6.7-35.8,5.3-50.9-2c-15.8-7.7-28.5-21.6-35-39.4
		c-3.6-9.7-5.3-19.4-4.9-28.7c0.4-9.5,2.6-18.6,6.7-27.1c3.2-6.3,8.1-13.7,14.7-20.6c5.7-6.1,12.7-12.1,20.4-17.2l0,0
		c2-1.4,4.2-2.6,6.3-3.8C1314,1782.5,1316.4,1781.4,1318.8,1780.6L1318.8,1780.6z"/>
	<path id="path8_1_" class="st5" d="M1236.4,1813l30.1-11.3c2.8-1,5.7,0.4,6.7,3.2c0,0.2,0.2,0.2,0.2,0.4l42.8,114.2
		c0.4,0.6,0.6,1.4,0.6,2.2c0.2,1.6-0.4,3.2-1.6,4.2l-14.1,14.1c-0.6,0.6-1.2,1-2,1.2l-24.7,9.1c-1.6,0.6-3.4,0.4-4.8-0.6l0,0
		l-27.9-18.6l5.3,14.1c0.4,0.8,0.8,1.8,0.8,2.8c0,1.4-0.6,2.8-1.6,3.6l-14.1,14.1c-0.6,0.6-1.2,1-1.8,1.2l0,0l-30.3,11.3
		c-2.8,1-5.7-0.4-6.7-3.2l-43.2-115.4c-0.8-2.2-0.2-4.6,1.6-5.9l13.7-13.7c0.6-0.6,1.2-1,2-1.2l26.3-9.7c1.6-0.6,3.4-0.4,4.8,0.6
		l0,0l25.7,16.8l-4.8-12.7c-0.8-2-0.2-4.2,1.2-5.5l13.9-14.1C1235.2,1813.6,1235.8,1813.2,1236.4,1813L1236.4,1813z"/>
	<path id="path10_1_" class="st5" d="M1133.9,2002.1c-11.9,1.2-22.2-1-31.1-6.3c-12.1-7.1-21-19.6-27.1-35.6l-23.8-63.8
		c-0.8-2.2-0.2-4.6,1.6-5.9l13.7-13.7c0.6-0.6,1.2-1,1.8-1.2l0,0l30.3-11.3c2.8-1,5.7,0.4,6.7,3.2l24.4,65.1
		c1.4,3.8,3.4,7.3,6.1,9.7c2,1.8,4.6,3,7.7,3.2c0.6,0,1.4,0,2,0c0-1.2-0.2-2.4-0.4-3.6c-0.4-1.8-0.8-3.6-1.6-5.5l-24.4-65.1
		c-0.8-2.2-0.2-4.6,1.6-5.9l13.3-13.3c0.6-0.8,1.4-1.4,2.4-1.8l30.3-11.3c2.8-1,5.7,0.4,6.7,3.2l24.2,64.5
		c3.8,9.9,5.5,19.4,5.3,28.3s-2.2,17.2-6.3,24.7c-3.4,5.9-9.7,12.1-16,18.2c-1.4,1.4-3,2.8-4.2,4l-0.2,0.2c-2.4,2.6-5.1,4.9-8.1,6.9
		C1158.6,1996.2,1146.5,2000.7,1133.9,2002.1L1133.9,2002.1z"/>
	<polygon id="polygon12_1_" class="st11" points="1272.6,1945.3 1231.3,1917.8 1242.3,1947.9 1242.3,1947.9 1242.5,1947.9 
		1228.5,1961.7 1198.2,1973.2 1155,1857.8 1169.1,1843.7 1195.6,1834 1234.6,1859.6 1224.3,1832 1238.2,1818 1268.3,1806.7 
		1311.6,1922.1 1297.6,1936.2 	"/>
	<path id="path14_1_" class="st11" d="M1320.7,1785.5c33.1-12.3,65.7,6.3,77.6,38.2c6.9,18.4,5.5,38.2-3,53.9c-0.4,1-1,2-1.6,3
		c-13.7,22.6-27.7,31.9-41.4,37c-34.1,12.7-67.1-6.3-79.2-38.2c-6.7-18.2-6.1-36,1.6-51.7c5.5-11.3,17.6-25.5,33.3-35.8l0,0
		C1311.8,1789.3,1316.2,1787.1,1320.7,1785.5z M1315.2,1835.4c0-0.2,0.2-0.4,0.2-0.6c2.2-7.1,9.3-9.3,18.2-6.9
		c9.1,2.4,16,10.9,19.8,20.8c0.8,2,1.4,4,1.8,6.1c1.8,8.1,1,13.9-2.4,17c-4,3.8-11.3,4-19.6,0.4c-6.9-3.8-12.3-10.7-15.4-19
		C1315.4,1847.3,1314.6,1841.2,1315.2,1835.4L1315.2,1835.4z"/>
	<polygon id="polygon16_1_" class="st11" points="1219.8,1886.9 1242.3,1947.9 1212.1,1959.1 1169.1,1843.7 1195.6,1834 1260,1876 
		1238.2,1818 1268.3,1806.7 1311.6,1922.1 1286.7,1931.2 	"/>
	<polygon id="polygon18_1_" class="st4" points="1211.7,1876.8 1237.4,1945.5 1214.4,1954 1174.2,1846.1 1195,1838.4 1267.9,1886.1 
		1243.3,1820.4 1265.9,1811.8 1306.5,1919.8 1287.1,1926.9 	"/>
	<polygon id="polygon20_1_" class="st13" points="1246.9,1821.9 1264.3,1815.4 1302.7,1918.2 1287.5,1923.7 1206.1,1869.7 
		1233.8,1943.9 1216.2,1950.4 1177.8,1847.9 1194.6,1841.5 1273.4,1893 	"/>
	<path id="path22_1_" class="st11" d="M1320.7,1785.5c33.1-12.3,65.7,6.3,77.6,38.2s-0.6,67.5-33.5,79.8
		c-33.1,12.3-65.7-6.3-77.6-38.2C1275.2,1833.2,1287.7,1797.8,1320.7,1785.5z M1331.6,1814.6c-16.6,6.1-19.6,23.2-13.9,38.6
		c5.7,15.2,19,26.1,35.8,20c16.6-6.3,19.6-23.2,13.9-38.6C1361.5,1819.4,1348.3,1808.5,1331.6,1814.6z"/>
	<path id="path24_1_" class="st4" d="M1322.1,1789.3c30.9-11.5,61.4,5.9,72.7,36c11.1,29.9-0.4,63.2-31.3,74.8
		c-30.9,11.5-61.4-6.1-72.7-36C1279.8,1834,1291.1,1800.8,1322.1,1789.3z M1330.3,1810.9c-18.8,6.9-22.8,26.3-16.2,43.8
		c6.5,17.4,22,29.3,41,22.4c18.8-7.1,22.8-26.3,16.2-43.6C1364.5,1816,1349.1,1803.9,1330.3,1810.9z"/>
	<path id="path26_1_" class="st13" d="M1329.3,1808.3c19.6-7.3,37,4.4,44.3,24s1.8,39.8-17.8,47.1c-19.6,7.3-37.2-4.4-44.5-24
		C1303.9,1836,1309.7,1815.6,1329.3,1808.3z M1323.1,1791.9c28.9-10.9,58.2,5.1,69.1,34.3c10.9,29.1-0.8,60.4-29.5,71.1
		c-28.9,10.7-58.2-5.1-69.1-34.3C1282.5,1833.8,1294,1802.5,1323.1,1791.9z"/>
	<path id="path28_1_" class="st11" d="M1130.7,1997.2c-23.8,1.4-40.6-13.9-49.9-39l-23.8-63.8l13.9-14.1l30.3-11.3l24.4,65.1
		c3.2,8.3,8.9,15.6,18.6,16c2.8,0.2,6.5-0.2,7.3-3.8c0.2-4.2-0.6-8.3-2.2-12.3l-24.4-65.1l14.1-14.1l0,0l0,0l0,0l0,0l30.1-11.3
		l24.2,64.5c6.9,18.6,6.9,35.2-0.6,48.7c-3.6,6.3-12.1,13.9-19.2,21l0,0C1162.6,1989.4,1146.1,1996.4,1130.7,1997.2L1130.7,1997.2z"
		/>
	<path id="path30_1_" class="st11" d="M1170.5,1976l0.2,0.4l-6.3,2.4c-0.2,0-0.4,0.2-0.4,0.2c-0.2,0-0.4,0.2-0.6,0.2l-6.3,2.4
		l-0.2-0.4c-30.3,7.9-51.1-7.9-62-37l-23.8-63.8l30.3-11.3l24.4,65.1c3.2,8.3,8.9,15.6,18.6,16c2.8,0.2,5.7-0.4,8.3-1.4
		c2.8-1,5.3-2.6,7.3-4.6c6.9-6.5,6.5-15.8,3.4-24.2l-24.5-65.1l30.3-11.3l24.2,64.5C1204.1,1937.6,1198.8,1962.3,1170.5,1976
		L1170.5,1976z"/>
	<path id="path32_1_" class="st4" d="M1165.3,1974L1165.3,1974l-2.6,1c-0.2,0-0.4,0.2-0.6,0.2s-0.4,0.2-0.6,0.2l-2.6,1l0,0
		c-30.1,9.5-50.1-4.9-60.6-33.5l-22.4-60l22.8-8.5l23,61.4c3.8,9.9,10.9,18.2,22.2,18.6c3.4,0.2,6.7-0.4,9.9-1.6s6.3-3,8.7-5.3
		c8.1-7.7,8.1-18.6,4.4-28.5l-23-61.4l22.8-8.5l22.8,60.8C1200.2,1938.4,1194.4,1961.5,1165.3,1974L1165.3,1974z"/>
	<path id="path34_1_" class="st13" d="M1079.6,1884.5l17.6-6.5l22,58.8c7.3,19.4,22.8,23.4,35.6,18.6c12.9-4.9,22.2-18,14.7-37.4
		l-22-58.8l17.6-6.5l21.8,58.2c8.7,23.2,8.7,48.5-25.1,61.8l0,0c-0.2,0-0.4,0.2-0.6,0.2s-0.4,0.2-0.6,0.2l0,0
		c-33.3,11.9-50.9-7.1-59.8-30.9L1079.6,1884.5z"/>
	<path id="path36_1_" class="st14" d="M1228.9,1832.8l10.9-11.1l6.1,16.4l-10.9,11.1L1228.9,1832.8z M1237,1854.8l10.9-11.1l2.4,6.1
		l-10.9,11.1L1237,1854.8z"/>
	<path id="path38_1_" class="st14" d="M1129.5,1870.1l10.9-11.1l6.1,16.4l-10.9,11.1L1129.5,1870.1z M1137.6,1892l10.9-11.1l2.4,6.1
		l-10.9,11.1L1137.6,1892z"/>
	<path id="path40_1_" class="st14" d="M1075.3,1932.4l10.9-11.1l6.1,16.4l-10.9,11.1L1075.3,1932.4z M1083.6,1954.4l10.9-11.1l0,0
		l0.4,0.8c0.8,1.8,1.4,3.6,2.2,5.3l-11.1,11.1L1083.6,1954.4z"/>
	<path id="path42_1_" class="st14" d="M1345.1,1829.5l11.1-11.1c4,3.2,7.3,7.7,9.7,12.9l-10.9,10.9
		C1352.6,1837.4,1349.3,1832.8,1345.1,1829.5z M1357.4,1847.5l10.7-10.9c0.8,2.4,1.2,4.6,1.6,6.9l-10.5,10.5v-0.2
		C1358.8,1851.8,1358.2,1849.7,1357.4,1847.5L1357.4,1847.5z"/>
</g>
<path id="cornice_1_" class="st10" d="M1999.2,1592.1h266.3c36.8,0,66.6,29.8,66.6,66.6v465.9c0,36.8-29.8,66.6-66.6,66.6h-266.3
	c-36.8,0-66.6-29.8-66.6-66.6v-465.9C1932.6,1621.9,1962.4,1592.1,1999.2,1592.1z"/>
<g id="base-colore_5_">
	<g>
		<path class="st11" d="M2178.3,2009.7c-69.1,34.2-135.3,36.1-178.7,9.7c-15.1-9.1-26.2-20.4-33.7-33.2v138.4
			c0,18.4,14.9,33.3,33.3,33.3h266.3c18.4,0,33.3-14.9,33.3-33.3v-238.4c-5.1,11.5-11.7,23.3-19.8,35.2
			C2255.3,1955.9,2220.4,1988.9,2178.3,2009.7z M2265.5,1625.4h-266.3c-18.4,0-33.3,14.9-33.3,33.3v229.7
			c19.1-44.7,61.1-89.1,117.1-116.9l0,0c48.3-25.7,100.3-31,142.9-21c36.2,8.6,59.9,24.1,72.8,44.1v-136
			C2298.7,1640.3,2283.8,1625.4,2265.5,1625.4z"/>
	</g>
</g>
<g id="_x2B_4">
	<path id="rect3980-7-6-2-9-5-60-5-3-1-5-2_1_" class="st5" d="M2067.6,1651.3l-31.4,64.1v16h38.5v16h16v-16h9.6v-16h-9.6v-32h-16
		v32h-21.8l31.4-64.1H2067.6z"/>
	<path id="rect5649-4-2_1_" class="st4" d="M1994.5,1683.4v16h-16v16h16v16h16v-16h16v-16h-16v-16H1994.5z"/>
	<path id="rect3980-7-6-2-9-5-60-5-3-1-8-9-0_1_" class="st5" d="M2197.1,2132l31.4-64.1v-16H2190v-16h-16v16h-9.6v16h9.6v32h16v-32
		h21.8l-31.4,64.1H2197.1z"/>
	<path id="rect5649-1-1-1_1_" class="st4" d="M2270.1,2100v-16h16v-16h-16v-16h-16v16h-16v16h16v16H2270.1z"/>
	<path id="rect6095-2-9-7_1_" class="st7" d="M2072.8,1811.6h64.1c8.8,0,14.2,6.5,11.9,14.5l-32.9,115.3c-2.3,8-11.3,14.5-20.2,14.5
		h-64.1c-8.8,0-14.2-6.5-11.9-14.5l32.9-115.3C2054.9,1818,2064,1811.6,2072.8,1811.6z"/>
	<g>
		<path id="rect6097-5-7-7_1_" class="st15" d="M2084.3,1827.6h32c8.8,0,14.2,6.5,11.9,14.5l-23.8,83.2c-2.3,8-11.3,14.5-20.2,14.5
			h-32c-8.8,0-14.2-6.5-11.9-14.5l23.8-83.2C2066.4,1834.1,2075.4,1827.6,2084.3,1827.6z"/>
	</g>
	<path id="rect6095-14-0-3-2_1_" class="st7" d="M2136.9,1763.5h64.1c8.8,0,14.2,6.5,11.9,14.5l-32.9,115.3
		c-2.3,8-11.3,14.5-20.2,14.5h-64.1c-8.8,0-14.2-6.5-11.9-14.5l32.9-115.3C2119,1770,2128.1,1763.5,2136.9,1763.5z"/>
	<path id="rect6097-6-3-2-4_1_" class="st16" d="M2148.4,1779.5h32c8.8,0,14.2,6.5,11.9,14.5l-23.8,83.2c-2.3,8-11.3,14.5-20.2,14.5
		h-32c-8.8,0-14.2-6.5-11.9-14.5l23.8-83.2C2130.5,1786,2139.5,1779.5,2148.4,1779.5z"/>
	<path id="rect6095-0-3-3_1_" class="st7" d="M2120.9,1859.6h64.1c8.8,0,14.2,6.5,11.9,14.5l-32.9,115.3c-2.3,8-11.3,14.5-20.2,14.5
		h-64.1c-8.8,0-14.2-6.5-11.9-14.5l32.9-115.3C2103,1866.1,2112,1859.6,2120.9,1859.6z"/>
	<path id="rect6097-7-4-7_1_" class="st17" d="M2132.3,1875.7h32c8.8,0,14.2,6.5,11.9,14.5l-23.8,83.2c-2.3,8-11.3,14.5-20.2,14.5
		h-32c-8.8,0-14.2-6.5-11.9-14.5l23.8-83.2C2114.5,1882.1,2123.5,1875.7,2132.3,1875.7z"/>
	<path id="rect6095-14-8-2-9_1_" class="st7" d="M2185,1811.6h64.1c8.8,0,14.2,6.5,11.9,14.5l-32.9,115.3
		c-2.3,8-11.3,14.5-20.2,14.5h-64.1c-8.8,0-14.2-6.5-11.9-14.5l32.9-115.3C2167.1,1818,2176.1,1811.6,2185,1811.6z"/>
	<path id="rect6097-6-7-1-59_1_" class="st18" d="M2196.4,1827.6h32c8.8,0,14.2,6.5,11.9,14.5l-23.8,83.2
		c-2.3,8-11.3,14.5-20.2,14.5h-32c-8.8,0-14.2-6.5-11.9-14.5l23.8-83.2C2178.5,1834.1,2187.6,1827.6,2196.4,1827.6z"/>
</g>
<path id="cornice_3_" class="st10" d="M1558,1592.1h266.3c36.8,0,66.6,29.8,66.6,66.6v465.9c0,36.8-29.8,66.6-66.6,66.6H1558
	c-36.8,0-66.6-29.8-66.6-66.6v-465.9C1491.4,1621.9,1521.2,1592.1,1558,1592.1z"/>
<g id="base-colore_2_">
	<g>
		<path class="st11" d="M1824.2,1625.4H1558c-18.4,0-33.3,14.9-33.3,33.3v229.7c19.1-44.7,61.1-89.1,117.1-116.9
			c48.3-25.7,100.3-31,142.9-21c36.2,8.6,59.9,24.1,72.8,44.1v-136C1857.5,1640.3,1842.6,1625.4,1824.2,1625.4z M1737.1,2009.7
			c-69.1,34.2-135.3,36.1-178.7,9.7c-15.1-9.1-26.2-20.4-33.7-33.2v138.4c0,18.4,14.9,33.3,33.3,33.3h266.3
			c18.4,0,33.3-14.9,33.3-33.3v-238.4c-5.1,11.5-11.7,23.3-19.8,35.2C1814.1,1955.9,1779.2,1988.9,1737.1,2009.7z"/>
	</g>
</g>
<path id="path3773-0-4-8-4-60-3-86-5-7-5_1_" class="st4" d="M1791,1725.3c-147,0-266.3,119.2-266.3,266.3
	c0,36.8,29.8,66.6,66.6,66.6c147,0,266.3-119.2,266.3-266.3C1857.5,1755.1,1827.7,1725.3,1791,1725.3z"/>
<g>
	<g id="colori-centro_1_">
		<path id="path3773-0-4-8-8-7-9-0-9-1_1_" class="st17" d="M1553.7,1891.7c-11.7,28.9-18.4,60.4-18.4,93.4
			c0,34.5,27.9,62.4,62.4,62.4l93.4-155.8L1553.7,1891.7L1553.7,1891.7z"/>
		<path id="path3773-0-4-8-8-5-6-5-0-08-2_1_" class="st18" d="M1691.1,1891.7l-93.4,155.8c104.6,0,194-64.5,231-155.8
			L1691.1,1891.7L1691.1,1891.7z"/>
		<path id="path3773-0-4-8-8-1-4-3-1-0_1_" class="st15" d="M1784.6,1735.9c-104.6,0-194,64.5-231,155.8h137.5L1784.6,1735.9z"/>
		<path id="path3773-0-4-8-8-5-8-3-9-4-9_1_" class="st16" d="M1784.6,1735.9l-93.4,155.8h137.5c11.7-28.9,18.4-60.4,18.4-93.4
			C1846.9,1763.8,1819,1735.9,1784.6,1735.9z"/>
		<path id="path3773-0-4-8-8-7-9-0-03-8-0-6_1_" class="st19" d="M1784.6,1735.9c-104.6,0-194,64.5-231,155.8
			c-11.7,28.9-18.4,60.4-18.4,93.4c0,34.5,27.9,62.4,62.4,62.4c104.6,0,194-64.5,231-155.8c11.7-28.9,18.4-60.4,18.4-93.4
			C1846.9,1763.8,1819,1735.9,1784.6,1735.9z"/>
	</g>
	<g id="colori-icon_3_">
		<path id="path3773-0-4-8-8-7-9-5-7-0-8_3_" class="st17" d="M1546.2,1683.7c-3.1,7.7-4.9,16.1-4.9,25c0,9.2,7.5,16.6,16.6,16.6
			l25-41.6H1546.2z"/>
		<path id="path3773-0-4-8-8-5-6-5-08-9-79-9_3_" class="st18" d="M1583,1683.7l-25,41.6c27.9,0,51.8-17.2,61.7-41.6H1583z"/>
		<path id="path3773-0-4-8-8-1-4-39-9-5-1_3_" class="st15" d="M1607.9,1642.1c-27.9,0-51.8,17.2-61.7,41.6h36.7L1607.9,1642.1z"/>
		<path id="path3773-0-4-8-8-5-8-3-3-7-38-7_3_" class="st16" d="M1607.9,1642.1l-25,41.6h36.7c3.1-7.7,4.9-16.1,4.9-25
			C1624.6,1649.5,1617.1,1642.1,1607.9,1642.1z"/>
		<path id="path3773-0-4-8-8-7-9-0-03-8-9-4-6_3_" class="st20" d="M1608.2,1641.6c-28.2,0-52.4,17.4-62.3,42.1
			c-3.2,7.8-4.9,16.3-4.9,25.2c0,9.3,7.5,16.8,16.8,16.8c28.2,0,52.4-17.4,62.3-42.1c3.2-7.8,4.9-16.3,4.9-25.2
			C1625,1649.2,1617.5,1641.6,1608.2,1641.6z"/>
	</g>
	<g>
		<path id="path3773-0-4-8-8-7-9-5-7-0-8_2_" class="st17" d="M1761.9,2098.1c-3.1,7.7-4.9,16.1-4.9,25c0,9.2,7.5,16.6,16.6,16.6
			l25-41.6H1761.9z"/>
		<path id="path3773-0-4-8-8-5-6-5-08-9-79-9_2_" class="st18" d="M1798.6,2098.1l-25,41.6c27.9,0,51.8-17.2,61.7-41.6H1798.6z"/>
		<path id="path3773-0-4-8-8-1-4-39-9-5-1_2_" class="st15" d="M1823.6,2056.5c-27.9,0-51.8,17.2-61.7,41.6h36.7L1823.6,2056.5z"/>
		<path id="path3773-0-4-8-8-5-8-3-3-7-38-7_2_" class="st16" d="M1823.6,2056.5l-25,41.6h36.7c3.1-7.7,4.9-16.1,4.9-25
			C1840.2,2064,1832.8,2056.5,1823.6,2056.5z"/>
		<path id="path3773-0-4-8-8-7-9-0-03-8-9-4-6_2_" class="st20" d="M1823.8,2056.1c-28.2,0-52.4,17.4-62.3,42.1
			c-3.2,7.8-4.9,16.3-4.9,25.2c0,9.3,7.5,16.8,16.8,16.8c28.2,0,52.4-17.4,62.3-42.1c3.2-7.8,4.9-16.3,4.9-25.2
			C1840.7,2063.6,1833.1,2056.1,1823.8,2056.1z"/>
	</g>
</g>
</svg>
